<!DOCTYPE svg PUBLIC "-//W3C//DTD SVG 20010904//EN" "http://www.w3.org/TR/2001/REC-SVG-20010904/DTD/svg10.dtd">
<svg version="1.0" xmlns="http://www.w3.org/2000/svg" width="572px" height="179px" viewBox="0 0 5720 1790" preserveAspectRatio="xMidYMid meet">
<g id="layer101" fill="#8c1515" stroke="none">
 <path d="M423 1544 l-183 -106 0 -159 0 -159 95 0 95 0 0 99 0 99 90 52 91 52 87 -50 87 -51 3 -104 3 -104 -203 -115 c-112 -63 -238 -134 -281 -158 l-77 -42 2 -225 3 -225 187 -104 188 -105 195 108 195 108 0 158 0 157 -100 0 -100 0 0 -99 0 -99 -91 -51 c-51 -28 -95 -51 -99 -51 -3 0 -48 23 -98 51 l-92 51 0 102 0 101 283 161 282 160 2 220 3 219 -189 108 c-103 59 -190 107 -192 107 -2 0 -86 -48 -186 -106z"/>
 <path d="M2070 1417 c-70 -37 -104 -100 -109 -199 -3 -69 0 -85 24 -134 18 -37 40 -64 68 -82 36 -24 50 -27 122 -27 72 0 86 3 122 27 125 83 125 323 0 406 -59 39 -164 43 -227 9z m199 -46 c100 -72 100 -261 -1 -333 -47 -33 -139 -33 -186 0 -118 85 -95 301 38 355 32 13 117 1 149 -22z"/>
 <path d="M2645 1421 c-84 -39 -125 -111 -125 -218 0 -77 21 -133 66 -175 84 -78 237 -78 308 1 19 21 19 22 0 35 -17 13 -22 12 -44 -8 -36 -34 -64 -46 -105 -46 -50 0 -95 21 -131 62 -108 123 -25 328 132 328 38 0 83 -19 103 -44 15 -18 29 -20 51 -6 12 7 11 12 -5 30 -54 60 -169 78 -250 41z"/>
 <path d="M3545 1421 c-84 -39 -125 -111 -125 -218 0 -77 21 -133 66 -175 84 -78 237 -78 308 1 19 21 19 22 0 35 -17 13 -22 12 -44 -8 -36 -34 -64 -46 -105 -46 -50 0 -95 21 -131 62 -108 123 -25 328 132 328 38 0 83 -19 103 -44 15 -18 29 -20 51 -6 12 7 11 12 -5 30 -54 60 -169 78 -250 41z"/>
 <path d="M1160 1205 l0 -225 115 0 c160 0 195 20 195 110 0 42 -21 95 -41 102 -6 2 3 18 20 37 25 27 31 42 31 78 0 54 -20 95 -55 111 -15 7 -74 12 -145 12 l-120 0 0 -225z m243 165 c33 -26 41 -63 23 -99 -20 -37 -61 -51 -152 -51 l-74 0 0 85 0 85 89 0 c73 0 93 -3 114 -20z m-11 -204 c27 -20 39 -62 27 -93 -17 -44 -37 -52 -131 -53 l-88 0 0 80 0 80 88 0 c55 -1 93 -5 104 -14z"/>
 <path d="M1610 1205 c0 -218 1 -225 20 -225 19 0 20 7 20 205 l0 205 110 0 c103 0 110 1 110 20 0 19 -7 20 -130 20 l-130 0 0 -225z"/>
 <path d="M3020 1205 c0 -217 1 -225 20 -225 18 0 20 8 22 116 l3 116 100 -115 c90 -104 103 -116 133 -117 l33 0 -95 107 -95 108 22 25 c123 137 177 199 177 204 0 3 -12 6 -28 6 -22 0 -41 -16 -97 -81 -39 -44 -78 -90 -87 -102 l-17 -22 -25 24 c-24 22 -26 32 -26 103 0 71 -2 78 -20 78 -19 0 -20 -7 -20 -225z"/>
 <path d="M3920 1205 c0 -218 1 -225 20 -225 19 0 20 7 20 100 l0 100 140 0 140 0 0 -100 c0 -93 1 -100 20 -100 19 0 20 7 20 225 0 218 -1 225 -20 225 -19 0 -20 -7 -20 -105 l0 -105 -140 0 -140 0 0 105 c0 98 -1 105 -20 105 -19 0 -20 -7 -20 -225z"/>
 <path d="M4400 1423 c1 -5 40 -105 88 -223 85 -209 88 -215 117 -218 l30 -3 91 226 91 225 -27 0 c-24 0 -30 -7 -47 -52 l-20 -53 -115 -3 -115 -3 -23 56 c-18 45 -27 55 -46 55 -13 0 -24 -3 -24 -7z m300 -150 c0 -4 -21 -61 -47 -126 l-47 -118 -43 108 c-23 58 -45 115 -49 125 -5 17 2 18 90 18 53 0 96 -3 96 -7z"/>
 <path d="M4920 1205 c0 -218 1 -225 20 -225 19 0 20 7 20 225 0 218 -1 225 -20 225 -19 0 -20 -7 -20 -225z"/>
 <path d="M5110 1205 l0 -225 24 0 c19 0 49 35 157 182 l134 183 3 -183 c2 -174 3 -182 22 -182 19 0 20 8 20 225 l0 225 -22 0 c-18 -1 -53 -42 -158 -188 l-135 -187 -3 188 c-2 179 -3 187 -22 187 -19 0 -20 -8 -20 -225z"/>
 <path d="M533 1352 l-73 -36 0 -97 0 -97 65 -36 c36 -20 72 -36 81 -36 8 0 46 16 84 35 l70 35 0 98 0 98 -75 37 c-42 20 -76 37 -78 36 -1 0 -35 -17 -74 -37z"/>
 <path d="M1205 831 c-22 -10 -49 -25 -59 -34 -19 -14 -19 -15 3 -46 l23 -31 29 25 c63 52 154 54 192 3 19 -25 19 -28 4 -52 -12 -18 -39 -32 -103 -51 -113 -34 -144 -63 -144 -133 0 -87 55 -132 163 -132 47 0 75 6 107 23 53 28 56 36 30 70 l-21 26 -34 -23 c-67 -46 -144 -42 -167 9 -16 36 8 58 85 80 87 24 134 50 152 85 35 67 5 158 -60 186 -49 20 -151 18 -200 -5z"/>
 <path d="M3994 831 c-77 -35 -124 -117 -124 -216 0 -142 88 -235 225 -235 137 0 225 93 225 235 0 142 -88 235 -225 235 -37 0 -76 -8 -101 -19z m179 -70 c55 -31 85 -121 66 -195 -40 -160 -248 -160 -288 0 -38 152 95 269 222 195z"/>
 <path d="M1800 645 l0 -195 -70 0 -70 0 0 -30 0 -30 175 0 175 0 0 30 0 30 -70 0 -70 0 0 195 0 195 -35 0 -35 0 0 -195z"/>
 <path d="M2123 828 c2 -7 42 -109 88 -225 l83 -213 47 0 47 0 86 218 c47 120 86 221 86 225 0 4 -18 7 -39 7 -37 0 -40 -2 -57 -45 l-17 -45 -104 0 -104 0 -19 45 c-18 43 -21 45 -61 45 -29 0 -40 -4 -36 -12z m297 -147 c0 -21 -78 -213 -83 -204 -6 10 -77 202 -77 209 0 2 36 4 80 4 44 0 80 -4 80 -9z"/>
 <path d="M2760 615 l0 -225 38 0 c37 0 39 2 152 161 l115 162 3 -162 2 -161 35 0 35 0 0 225 0 225 -37 0 c-38 0 -39 -2 -155 -167 l-118 -166 0 166 0 167 -35 0 -35 0 0 -225z"/>
 <path d="M3380 615 l0 -225 150 0 150 0 0 30 0 30 -115 0 -115 0 0 65 0 65 115 0 115 0 0 30 0 30 -115 0 -115 0 0 100 0 100 -35 0 -35 0 0 -225z"/>
 <path d="M4550 615 l0 -225 121 0 c94 0 127 4 149 16 42 25 60 64 60 129 0 51 -3 60 -34 91 -19 19 -41 34 -50 34 -9 0 -16 2 -16 5 0 2 25 43 55 90 l55 85 -44 0 -44 0 -54 -85 c-51 -82 -54 -85 -90 -85 l-38 0 0 85 0 85 -35 0 -35 0 0 -225z m210 -18 c39 -20 56 -58 41 -94 -16 -39 -48 -53 -121 -53 l-60 0 0 80 0 80 58 0 c31 0 68 -6 82 -13z"/>
 <path d="M5100 615 l0 -225 113 0 c129 0 173 14 224 73 96 110 58 299 -72 358 -31 14 -65 19 -152 19 l-113 0 0 -225z m241 139 c48 -28 72 -75 72 -139 0 -103 -55 -154 -174 -163 l-69 -5 0 168 0 168 69 -5 c43 -3 82 -13 102 -24z"/>
 <path d="M528 704 l-68 -34 0 -98 0 -98 72 -35 72 -36 78 36 78 35 0 98 0 98 -70 35 c-38 19 -75 35 -82 35 -7 -1 -43 -17 -80 -36z"/>
 </g>
<g id="layer102" fill="#4d4f53" stroke="none">
 <path d="M2070 1417 c-70 -37 -104 -100 -109 -199 -3 -69 0 -85 24 -134 18 -37 40 -64 68 -82 36 -24 50 -27 122 -27 72 0 86 3 122 27 125 83 125 323 0 406 -59 39 -164 43 -227 9z m199 -46 c100 -72 100 -261 -1 -333 -47 -33 -139 -33 -186 0 -118 85 -95 301 38 355 32 13 117 1 149 -22z"/>
 <path d="M2645 1421 c-84 -39 -125 -111 -125 -218 0 -77 21 -133 66 -175 84 -78 237 -78 308 1 19 21 19 22 0 35 -17 13 -22 12 -44 -8 -36 -34 -64 -46 -105 -46 -50 0 -95 21 -131 62 -108 123 -25 328 132 328 38 0 83 -19 103 -44 15 -18 29 -20 51 -6 12 7 11 12 -5 30 -54 60 -169 78 -250 41z"/>
 <path d="M3545 1421 c-84 -39 -125 -111 -125 -218 0 -77 21 -133 66 -175 84 -78 237 -78 308 1 19 21 19 22 0 35 -17 13 -22 12 -44 -8 -36 -34 -64 -46 -105 -46 -50 0 -95 21 -131 62 -108 123 -25 328 132 328 38 0 83 -19 103 -44 15 -18 29 -20 51 -6 12 7 11 12 -5 30 -54 60 -169 78 -250 41z"/>
 <path d="M1160 1205 l0 -225 115 0 c160 0 195 20 195 110 0 42 -21 95 -41 102 -6 2 3 18 20 37 25 27 31 42 31 78 0 54 -20 95 -55 111 -15 7 -74 12 -145 12 l-120 0 0 -225z m243 165 c33 -26 41 -63 23 -99 -20 -37 -61 -51 -152 -51 l-74 0 0 85 0 85 89 0 c73 0 93 -3 114 -20z m-11 -204 c27 -20 39 -62 27 -93 -17 -44 -37 -52 -131 -53 l-88 0 0 80 0 80 88 0 c55 -1 93 -5 104 -14z"/>
 <path d="M1610 1205 c0 -218 1 -225 20 -225 19 0 20 7 20 205 l0 205 110 0 c103 0 110 1 110 20 0 19 -7 20 -130 20 l-130 0 0 -225z"/>
 <path d="M3020 1205 c0 -217 1 -225 20 -225 18 0 20 8 22 116 l3 116 100 -115 c90 -104 103 -116 133 -117 l33 0 -95 107 -95 108 22 25 c123 137 177 199 177 204 0 3 -12 6 -28 6 -22 0 -41 -16 -97 -81 -39 -44 -78 -90 -87 -102 l-17 -22 -25 24 c-24 22 -26 32 -26 103 0 71 -2 78 -20 78 -19 0 -20 -7 -20 -225z"/>
 <path d="M3920 1205 c0 -218 1 -225 20 -225 19 0 20 7 20 100 l0 100 140 0 140 0 0 -100 c0 -93 1 -100 20 -100 19 0 20 7 20 225 0 218 -1 225 -20 225 -19 0 -20 -7 -20 -105 l0 -105 -140 0 -140 0 0 105 c0 98 -1 105 -20 105 -19 0 -20 -7 -20 -225z"/>
 <path d="M4400 1423 c1 -5 40 -105 88 -223 85 -209 88 -215 117 -218 l30 -3 91 226 91 225 -27 0 c-24 0 -30 -7 -47 -52 l-20 -53 -115 -3 -115 -3 -23 56 c-18 45 -27 55 -46 55 -13 0 -24 -3 -24 -7z m300 -150 c0 -4 -21 -61 -47 -126 l-47 -118 -43 108 c-23 58 -45 115 -49 125 -5 17 2 18 90 18 53 0 96 -3 96 -7z"/>
 <path d="M4920 1205 c0 -218 1 -225 20 -225 19 0 20 7 20 225 0 218 -1 225 -20 225 -19 0 -20 -7 -20 -225z"/>
 <path d="M5110 1205 l0 -225 24 0 c19 0 49 35 157 182 l134 183 3 -183 c2 -174 3 -182 22 -182 19 0 20 8 20 225 l0 225 -22 0 c-18 -1 -53 -42 -158 -188 l-135 -187 -3 188 c-2 179 -3 187 -22 187 -19 0 -20 -8 -20 -225z"/>
 <path d="M533 1352 l-73 -36 0 -97 0 -97 65 -36 c36 -20 72 -36 81 -36 8 0 46 16 84 35 l70 35 0 98 0 98 -75 37 c-42 20 -76 37 -78 36 -1 0 -35 -17 -74 -37z"/>
 <path d="M1205 831 c-22 -10 -49 -25 -59 -34 -19 -14 -19 -15 3 -46 l23 -31 29 25 c63 52 154 54 192 3 19 -25 19 -28 4 -52 -12 -18 -39 -32 -103 -51 -113 -34 -144 -63 -144 -133 0 -87 55 -132 163 -132 47 0 75 6 107 23 53 28 56 36 30 70 l-21 26 -34 -23 c-67 -46 -144 -42 -167 9 -16 36 8 58 85 80 87 24 134 50 152 85 35 67 5 158 -60 186 -49 20 -151 18 -200 -5z"/>
 <path d="M3994 831 c-77 -35 -124 -117 -124 -216 0 -142 88 -235 225 -235 137 0 225 93 225 235 0 142 -88 235 -225 235 -37 0 -76 -8 -101 -19z m179 -70 c55 -31 85 -121 66 -195 -40 -160 -248 -160 -288 0 -38 152 95 269 222 195z"/>
 <path d="M1800 645 l0 -195 -70 0 -70 0 0 -30 0 -30 175 0 175 0 0 30 0 30 -70 0 -70 0 0 195 0 195 -35 0 -35 0 0 -195z"/>
 <path d="M2123 828 c2 -7 42 -109 88 -225 l83 -213 47 0 47 0 86 218 c47 120 86 221 86 225 0 4 -18 7 -39 7 -37 0 -40 -2 -57 -45 l-17 -45 -104 0 -104 0 -19 45 c-18 43 -21 45 -61 45 -29 0 -40 -4 -36 -12z m297 -147 c0 -21 -78 -213 -83 -204 -6 10 -77 202 -77 209 0 2 36 4 80 4 44 0 80 -4 80 -9z"/>
 <path d="M2760 615 l0 -225 38 0 c37 0 39 2 152 161 l115 162 3 -162 2 -161 35 0 35 0 0 225 0 225 -37 0 c-38 0 -39 -2 -155 -167 l-118 -166 0 166 0 167 -35 0 -35 0 0 -225z"/>
 <path d="M3380 615 l0 -225 150 0 150 0 0 30 0 30 -115 0 -115 0 0 65 0 65 115 0 115 0 0 30 0 30 -115 0 -115 0 0 100 0 100 -35 0 -35 0 0 -225z"/>
 <path d="M4550 615 l0 -225 121 0 c94 0 127 4 149 16 42 25 60 64 60 129 0 51 -3 60 -34 91 -19 19 -41 34 -50 34 -9 0 -16 2 -16 5 0 2 25 43 55 90 l55 85 -44 0 -44 0 -54 -85 c-51 -82 -54 -85 -90 -85 l-38 0 0 85 0 85 -35 0 -35 0 0 -225z m210 -18 c39 -20 56 -58 41 -94 -16 -39 -48 -53 -121 -53 l-60 0 0 80 0 80 58 0 c31 0 68 -6 82 -13z"/>
 <path d="M5100 615 l0 -225 113 0 c129 0 173 14 224 73 96 110 58 299 -72 358 -31 14 -65 19 -152 19 l-113 0 0 -225z m241 139 c48 -28 72 -75 72 -139 0 -103 -55 -154 -174 -163 l-69 -5 0 168 0 168 69 -5 c43 -3 82 -13 102 -24z"/>
 <path d="M528 704 l-68 -34 0 -98 0 -98 72 -35 72 -36 78 36 78 35 0 98 0 98 -70 35 c-38 19 -75 35 -82 35 -7 -1 -43 -17 -80 -36z"/>
 </g>
<g id="layer103" fill="#d8d8d8" stroke="none">
 <path d="M533 1352 l-73 -36 0 -93 c0 -51 2 -93 5 -93 3 0 37 16 75 35 l70 35 0 95 c0 52 -1 95 -2 94 -2 0 -36 -17 -75 -37z"/>
 <path d="M528 704 l-68 -34 0 -95 0 -95 75 37 75 37 0 93 c0 51 -3 93 -7 93 -5 -1 -38 -17 -75 -36z"/>
 </g>

</svg>